<?xml version="1.0" encoding="UTF-8" standalone="yes"?>
<!DOCTYPE svg PUBLIC "-//W3C//DTD SVG 1.1//EN" "http://www.w3.org/Graphics/SVG/1.1/DTD/svg11.dtd">
<svg xmlns="http://www.w3.org/2000/svg" xmlns:xlink="http://www.w3.org/1999/xlink" xmlns:serif="http://www.serif.com/" width="100%" height="100%" viewBox="0 0 50 30" version="1.1" xml:space="preserve" style="fill-rule:evenodd;clip-rule:evenodd;stroke-linejoin:round;stroke-miterlimit:2;zoom: 1;"><g id="Group"><path d="M16.889,8.985 L16.889,6.28 C17.150999,6.26 17.417,6.247 17.687,6.238 C25.087,6.006 29.941999,12.597 29.941999,12.597 C29.941999,12.597 24.698,19.879 19.076,19.879 C18.333,19.882 17.594,19.764 16.889,19.528999 L16.889,11.325 C19.768999,11.673 20.349001,12.945 22.080999,15.833 L25.933001,12.585 C25.933001,12.585 23.121,8.897 18.381001,8.897 C17.865999,8.897 17.372999,8.933 16.889,8.985 M16.889,0.047 L16.889,4.09 C17.153999,4.069 17.42,4.052 17.687,4.042 C27.976999,3.696 34.681999,12.482 34.681999,12.482 C34.681999,12.482 26.982,21.846001 18.959,21.846001 C18.224001,21.846001 17.535,21.778 16.889,21.663 L16.889,24.160999 C17.441999,24.231001 18.014999,24.273001 18.613001,24.273001 C26.077999,24.273001 31.476999,20.461 36.705002,15.948 C37.571999,16.642 41.120998,18.330999 41.849998,19.070999 C36.879002,23.231001 25.295,26.586 18.726999,26.586 C18.113001,26.584 17.5,26.552 16.889,26.49 L16.889,30 L45.264,30 L45.264,0.047 L16.889,0.047 M16.889,19.528999 L16.889,21.662001 C9.984,20.431999 8.067,13.254 8.067,13.254 C8.067,13.254 11.383,9.58 16.889,8.985 L16.889,11.325 L16.878,11.324 C13.988,10.977 11.731,13.677 11.731,13.677 C11.731,13.677 12.996,18.221001 16.889,19.528999 M4.625,12.943 C4.625,12.943 8.717,6.903 16.889,6.28 L16.889,4.088 C7.838,4.815 0,12.48 0,12.48 C0,12.48 4.439,25.313 16.889,26.488001 L16.889,24.16 C7.753,23.011 4.625,12.943 4.625,12.943 " id="path2" style="fill:rgb(0,0,0);"></path></g></svg>
